<svg width="512" height="512" viewBox="0 0 512 512" fill="none" xmlns="http://www.w3.org/2000/svg">
<path d="M256 512C114.844 512 0 397.156 0 256C0 114.844 114.844 0 256 0C397.156 0 512 114.844 512 256C512 397.156 397.156 512 256 512ZM256 32.0001C132.484 32.0001 32.0001 132.484 32.0001 256C32.0001 379.516 132.484 480 256 480C379.516 480 480 379.516 480 256C480 132.484 379.516 32.0001 256 32.0001Z" fill="black"/>
<path d="M256 384.001C185.422 384.001 128 326.579 128 256C128 185.421 185.421 127.999 256 127.999C290.703 127.999 323.172 141.656 347.453 166.452L324.579 188.827C306.376 170.233 282.032 159.998 256 159.998C203.062 159.998 160 203.061 160 255.999C160 308.937 203.062 351.999 256 351.999C282.016 351.999 306.36 341.765 324.579 323.171L347.422 345.577C323.156 370.359 290.688 383.999 256 384.001Z" fill="black"/>
</svg>
