<svg width="512" height="512" viewBox="0 0 512 512" fill="none" xmlns="http://www.w3.org/2000/svg">
<g clip-path="url(#clip0)">
<path d="M103.769 108.858L103.761 108.866L103.753 108.873C94.448 118.179 81.7821 124.077 68.2982 123.235L68.2826 123.234H68.267C55.5885 123.234 42.0662 118.159 32.7806 108.873L32.7729 108.866L32.7649 108.858C22.6428 99.5795 17.567 86.0679 17.567 72.534C17.567 59.0133 22.6345 46.3406 32.7806 36.1945C42.0662 26.9089 54.7355 21.834 69.12 21.834C81.7896 21.834 94.4617 26.9028 103.753 36.1945C113.899 46.3406 118.967 59.0133 118.967 72.534C118.967 86.0679 113.891 99.5795 103.769 108.858ZM69.12 3.76697C50.2217 3.76697 33.0252 10.6416 20.1264 23.5404C6.38028 37.2866 -0.5 54.4795 -0.5 72.533C-0.5 91.4472 7.23899 108.639 20.1264 121.527C33.0093 134.409 51.0565 142.157 68.2794 141.3H68.28H68.2807H68.2815H68.2822H68.283H68.2837H68.2845H68.2854H68.2862H68.287H68.2879H68.2888H68.2897H68.2906H68.2915H68.2925H68.2935H68.2945H68.2955H68.2965H68.2975H68.2986H68.2997H68.3008H68.3019H68.303H68.3042H68.3053H68.3065H68.3077H68.3089H68.3101H68.3114H68.3127H68.3139H68.3152H68.3166H68.3179H68.3192H68.3206H68.322H68.3234H68.3248H68.3262H68.3277H68.3291H68.3306H68.3321H68.3336H68.3352H68.3367H68.3383H68.3398H68.3414H68.3431H68.3447H68.3463H68.348H68.3497H68.3513H68.3531H68.3548H68.3565H68.3583H68.36H68.3618H68.3636H68.3654H68.3673H68.3691H68.371H68.3729H68.3748H68.3767H68.3786H68.3805H68.3825H68.3845H68.3864H68.3884H68.3905H68.3925H68.3945H68.3966H68.3987H68.4008H68.4029H68.405H68.4071H68.4093H68.4114H68.4136H68.4158H68.418H68.4202H68.4225H68.4247H68.427H68.4293H68.4316H68.4339H68.4362H68.4386H68.4409H68.4433H68.4457H68.4481H68.4505H68.4529H68.4553H68.4578H68.4602H68.4627H68.4652H68.4677H68.4702H68.4728H68.4753H68.4779H68.4805H68.4831H68.4857H68.4883H68.4909H68.4935H68.4962H68.4989H68.5015H68.5042H68.507H68.5097H68.5124H68.5152H68.5179H68.5207H68.5235H68.5263H68.5291H68.5319H68.5348H68.5376H68.5405H68.5434H68.5463H68.5492H68.5521H68.555H68.558H68.5609H68.5639H68.5668H68.5698H68.5728H68.5759H68.5789H68.5819H68.585H68.588H68.5911H68.5942H68.5973H68.6004H68.6036H68.6067H68.6098H68.613H68.6162H68.6194H68.6226H68.6258H68.629H68.6322H68.6355H68.6387H68.642H68.6452H68.6485H68.6518H68.6552H68.6585H68.6618H68.6652H68.6685H68.6719H68.6753H68.6786H68.682H68.6855H68.6889H68.6923H68.6958H68.6992H68.7027H68.7062H68.7096H68.7132H68.7167H68.7202H68.7237H68.7273H68.7308H68.7344H68.7379H68.7415H68.7451H68.7487H68.7523H68.756H68.7596H68.7632H68.7669H68.7706H68.7742H68.7779H68.7816H68.7853H68.789H68.7928H68.7965H68.8002H68.804H68.8078H68.8115H68.8153H68.8191H68.8229H68.8267H68.8306H68.8344H68.8382H68.8421H68.8459H68.8498H68.8537H68.8576H68.8615H68.8654H68.8693H68.8732H68.8772H68.8811H68.885H68.889H68.893H68.897H68.9009H68.9049H68.9089H68.913H68.917H68.921H68.925H68.9291H68.9332H68.9372H68.9413H68.9454H68.9495H68.9536H68.9577H68.9618H68.9659H68.97H68.9742H68.9783H68.9825H68.9866H68.9908H68.995H68.9992H69.0034H69.0076H69.0118H69.016H69.0202H69.0245H69.0287H69.033H69.0372H69.0415H69.0457H69.05H69.0543H69.0586H69.0629H69.0672H69.0715H69.0759H69.0802H69.0845H69.0889H69.0932H69.0976H69.1019H69.1063H69.1107H69.1151H69.1195H69.1239H69.1283H69.1327H69.1371H69.1415H69.146H69.1504H69.1549H69.1593H69.1638H69.1682H69.1727H69.1772H69.1817H69.1862H69.1907H69.1952H69.1997H69.2042H69.2087H69.2132H69.2178H69.2223H69.2269H69.2314H69.236H69.2405H69.2451H69.2497H69.2542H69.2588H69.2634H69.268H69.2726H69.2772H69.2819H69.2865H69.2911H69.2957H69.3004H69.305H69.3096H69.3143H69.319H69.3236H69.3283H69.333H69.3376H69.3423H69.347H69.3517H69.3564H69.3611H69.3658H69.3705H69.3752H69.3799H69.3847H69.3894H69.3941H69.3989H69.4036H69.4084H69.4131H69.4179H69.4226H69.4274H69.4322H69.4369H69.4417H69.4465H69.4513H69.4561H69.4609H69.4657H69.4705H69.4753H69.4801H69.4849H69.4897H69.4945H69.4993H69.5042H69.509H69.5138H69.5187H69.5235H69.5284H69.5332H69.5381H69.5429H69.5478H69.5527H69.5575H69.5624H69.5673H69.5721H69.577H69.5819H69.5868H69.5917H69.5966H69.6014H69.6063H69.6112H69.6161H69.621H69.626H69.6309H69.6358H69.6407H69.6456H69.6505H69.6555H69.6604H69.6653H69.6702H69.6752H69.6801H69.6851H69.69H69.6949H69.6999H69.7048H69.7098H69.7147H69.7197H69.7246H69.7296H69.7345H69.7395H69.7445H69.7494H69.7544H69.7594H69.7643H69.7693H69.7743H69.7792H69.7842H69.7892H69.7942H69.7991H69.8041H69.8091H69.8141H69.8191H69.8241H69.829H69.834H69.839H69.844H69.849H69.854H69.859H69.864H69.869H69.874H69.879H69.884H69.889H69.894H69.899H69.904H69.909H69.914H69.919H69.924H69.929H69.934H69.939H69.944H69.949H69.954H69.959H69.964H69.969H69.974C87.18 141.3 103.518 134.416 116.408 121.527C129.292 108.642 137.031 91.4544 137.034 72.5448C137.891 54.4703 130.144 37.2785 117.266 24.398C104.367 10.6428 87.168 3.76697 69.12 3.76697Z" fill="white" stroke="white"/>
<path d="M102.4 157.367H33.28C19.3398 157.367 8.03296 168.695 8.03296 183.467V482.134C8.03296 496.063 20.2038 508.234 34.133 508.234H102.4C116.318 508.234 128.5 496.074 128.5 482.987V183.467C128.5 169.537 116.329 157.367 102.4 157.367ZM110.433 482.987C110.433 484.947 109.453 486.737 107.939 488.049C106.423 489.363 104.404 490.167 102.4 490.167H34.133C32.1621 490.167 30.1496 489.176 28.6199 487.647C27.0902 486.117 26.1 484.104 26.1 482.134V183.467C26.1 181.462 26.9042 179.443 28.2177 177.928C29.5299 176.414 31.3202 175.434 33.28 175.434H102.4C104.371 175.434 106.383 176.424 107.913 177.954C109.443 179.484 110.433 181.497 110.433 183.467V482.987Z" fill="white" stroke="white"/>
<path d="M374.613 148.833C341.662 148.833 310.374 162.993 289.78 185.577V174.933C289.78 170.504 287.57 166.116 284.3 162.846C281.03 159.576 276.643 157.366 272.213 157.366H186.88C182.903 157.366 178.523 159.128 175.138 162.076C171.748 165.028 169.313 169.21 169.313 174.079V492.372C169.313 497.247 171.754 501.221 175.153 503.961C178.545 506.697 182.921 508.232 186.88 508.232H280.747C284.706 508.232 289.082 506.697 292.474 503.961C295.873 501.221 298.314 497.247 298.314 492.372V308.052C298.314 280.133 318.604 258.205 344.747 258.205C358.274 258.205 370.945 263.277 380.233 272.566L380.243 272.575L380.253 272.584C388.631 280.125 392.034 291.897 392.034 307.199V490.666C392.034 495.095 394.243 499.483 397.514 502.753C400.784 506.023 405.171 508.233 409.601 508.233H494.934C499.363 508.233 503.751 506.023 507.021 502.753C510.291 499.483 512.501 495.096 512.501 490.666V270.506C512.5 201.971 460.23 148.833 392.533 148.833H374.613ZM494.433 489.606L493.873 490.166H410.951L410.1 307.2C410.1 307.199 410.1 307.198 410.1 307.198C410.1 286.635 404.956 271.129 393.741 259.913C380.844 247.017 363.649 240.14 345.6 240.14L345.588 240.14C309.467 241 281.1 270.246 281.1 308.053V490.166H188.233V175.433H272.006L272.566 175.993V229.546V230.753L273.42 229.9L296.46 206.86L297.313 206.007L297.342 205.977L297.366 205.944C314.335 182.187 344.047 166.9 375.466 166.9H393.386C450.269 166.9 494.433 212.742 494.433 270.507V489.606Z" fill="white" stroke="white"/>
</g>
<defs>
<clipPath id="clip0">
<rect width="512" height="512" fill="white"/>
</clipPath>
</defs>
</svg>
