<?xml version="1.0" encoding="iso-8859-1"?>
<!-- Generator: Adobe Illustrator 19.0.0, SVG Export Plug-In . SVG Version: 6.00 Build 0)  -->
<svg version="1.1" id="Capa_1" xmlns="http://www.w3.org/2000/svg" xmlns:xlink="http://www.w3.org/1999/xlink" x="0px" y="0px"
	 viewBox="0 0 512 512" style="enable-background:new 0 0 512 512;" xml:space="preserve">
<g>
	<g>
		<g>
			<path d="M501.333,128h-32V85.333C469.333,73.551,459.782,64,448,64h-64c-11.782,0-21.333,9.551-21.333,21.333V128h-32
				c-14.752,0-20.821,12.384-21.333,21.333V160H202.667v-10.667c0-15.755-5.579-21.333-21.333-21.333h-32V85.333
				C149.333,73.551,139.782,64,128,64H64c-11.782,0-21.333,9.551-21.333,21.333V128h-32C4.776,128,0,132.776,0,138.667V192
				c0,5.891,4.776,10.667,10.667,10.667h10.667V416c0,15.851,16.149,32,32,32h405.333c15.851,0,32-16.149,32-32V202.667h10.667
				c5.891,0,10.667-4.776,10.667-10.667v-53.333C512,132.776,507.224,128,501.333,128z M384,85.333h64V128h-64V85.333z M64,85.333
				h64V128H64V85.333z M490.667,181.333H480c-5.891,0-10.667,4.776-10.667,10.667v224c0,4.085-6.581,10.667-10.667,10.667H53.333
				c-4.085,0-10.667-6.581-10.667-10.667V192c0-5.891-4.776-10.667-10.667-10.667H21.333v-32h160v21.333
				c0,5.891,4.776,10.667,10.667,10.667h128c5.891,0,10.667-4.776,10.667-10.667v-20.704c0.061-0.205,0.097-0.416,0.107-0.629
				h159.893V181.333z"/>
			<path d="M341.333,298.667h32v32c0,5.891,4.776,10.667,10.667,10.667s10.667-4.776,10.667-10.667v-32h32
				c5.891,0,10.667-4.776,10.667-10.667s-4.776-10.667-10.667-10.667h-32v-32c0-5.891-4.776-10.667-10.667-10.667
				s-10.667,4.776-10.667,10.667v32h-32c-5.891,0-10.667,4.776-10.667,10.667S335.442,298.667,341.333,298.667z"/>
			<path d="M170.667,277.333H85.333c-5.891,0-10.667,4.776-10.667,10.667s4.776,10.667,10.667,10.667h85.333
				c5.891,0,10.667-4.776,10.667-10.667S176.558,277.333,170.667,277.333z"/>
		</g>
	</g>
</g>
<g>
</g>
<g>
</g>
<g>
</g>
<g>
</g>
<g>
</g>
<g>
</g>
<g>
</g>
<g>
</g>
<g>
</g>
<g>
</g>
<g>
</g>
<g>
</g>
<g>
</g>
<g>
</g>
<g>
</g>
</svg>
